<svg height="512px" style="enable-background:new 0 0 512 512;" version="1.1" viewBox="0 0 512 512" width="512px" xml:space="preserve" xmlns="http://www.w3.org/2000/svg" xmlns:xlink="http://www.w3.org/1999/xlink"><g id="_x33_02-sith"><g><path d="M26.002,26.001l71.576,121.931l-60.438-11.829l71.711,93.468c-3.11,17.473-3.11,35.355,0,52.829    l-71.711,93.469l60.438-11.829l-71.576,121.96l121.929-71.577l-11.828,60.436l93.469-71.709c17.476,3.121,35.393,3.121,52.857,0    l93.468,71.709l-11.827-60.436l121.929,71.577l-71.575-121.96l60.436,11.829l-71.71-93.469c3.11-17.468,3.121-35.362,0-52.829    l71.71-93.468l-60.436,11.829l71.575-121.931L364.069,97.578l11.827-60.477l-93.497,71.74c-8.729-1.561-17.56-2.351-26.398-2.351    c-8.841,0-17.671,0.8-26.399,2.351l-93.499-71.74l11.828,60.477L26.002,26.001z" style="fill:rgb(143,6,8);"/><path d="M256.001,146.452c28.044,0,56.086,10.688,77.471,32.074c42.772,42.771,42.764,112.183,0,154.944    c-42.761,42.763-112.173,42.738-154.944-0.025c-42.771-42.771-42.763-112.184,0-154.946    C199.904,157.114,227.957,146.452,256.001,146.452L256.001,146.452z" style="fill:#FFFFFF;"/><path d="M256.001,178.781c-19.772,0-39.535,7.514-54.606,22.586c-30.144,30.143-30.152,79.086,0,109.236    c30.151,30.151,79.06,30.145,109.212,0c30.143-30.141,30.151-79.085,0-109.236C295.534,186.295,275.771,178.781,256.001,178.781    L256.001,178.781z" style="fill:rgb(143,6,8);"/></g></g><g id="Layer_1"/></svg>